<?xml version="1.0" encoding="UTF-8" standalone="no"?>
<svg
   xmlns:dc="http://purl.org/dc/elements/1.1/"
   xmlns:cc="http://creativecommons.org/ns#"
   xmlns:rdf="http://www.w3.org/1999/02/22-rdf-syntax-ns#"
   xmlns:svg="http://www.w3.org/2000/svg"
   xmlns="http://www.w3.org/2000/svg"
   xmlns:sodipodi="http://sodipodi.sourceforge.net/DTD/sodipodi-0.dtd"
   xmlns:inkscape="http://www.inkscape.org/namespaces/inkscape"
   width="1792"
   height="1792"
   viewBox="0 0 1792 1792"
   id="svg3033"
   version="1.1"
   inkscape:version="0.91 r13725"
   sodipodi:docname="answer.svg">
  <metadata
     id="metadata3041">
    <rdf:RDF>
      <cc:Work
         rdf:about="">
        <dc:format>image/svg+xml</dc:format>
        <dc:type
           rdf:resource="http://purl.org/dc/dcmitype/StillImage" />
        <dc:title></dc:title>
      </cc:Work>
    </rdf:RDF>
  </metadata>
  <defs
     id="defs3039" />
  <sodipodi:namedview
     pagecolor="#ffffff"
     bordercolor="#666666"
     borderopacity="1"
     objecttolerance="10"
     gridtolerance="10"
     guidetolerance="10"
     inkscape:pageopacity="0"
     inkscape:pageshadow="2"
     inkscape:window-width="1664"
     inkscape:window-height="861"
     id="namedview3037"
     showgrid="false"
     inkscape:zoom="0.35044643"
     inkscape:cx="312.4586"
     inkscape:cy="933.84627"
     inkscape:window-x="85"
     inkscape:window-y="43"
     inkscape:window-maximized="0"
     inkscape:current-layer="svg3033" />
  <path
     d="M896 384q-204 0-381.5 69.5t-282 187.5-104.5 255q0 112 71.5 213.5t201.5 175.5l87 50-27 96q-24 91-70 172 152-63 275-171l43-38 57 6q69 8 130 8 204 0 381.5-69.5t282-187.5 104.5-255-104.5-255-282-187.5-381.5-69.5zm896 512q0 174-120 321.5t-326 233-450 85.5q-70 0-145-8-198 175-460 242-49 14-114 22h-5q-15 0-27-10.5t-16-27.5v-1q-3-4-.5-12t2-10 4.5-9.5l6-9 7-8.5 8-9q7-8 31-34.5t34.5-38 31-39.5 32.5-51 27-59 26-76q-157-89-247.5-220t-90.5-281q0-174 120-321.5t326-233 450-85.5 450 85.5 326 233 120 321.5z"
     id="path3035" />
  <g
     transform="matrix(1.2600156,0,0,1.2600156,20.635017,-89.322754)"
     style="font-style:normal;font-variant:normal;font-weight:normal;font-stretch:normal;font-size:40px;line-height:125%;font-family:'Droid Sans Mono';-inkscape-font-specification:'Droid Sans Mono';letter-spacing:0px;word-spacing:0px;fill-opacity:1;stroke:none"
     id="text3187">
    <path
       inkscape:connector-curvature="0"
       d="m 756.77118,859.22485 -95.3125,0 -19.92188,-381.64062 135.15625,0 -19.92187,381.64062 M 639.9743,992.8186 c -4e-5,-12.23951 1.69267,-22.52596 5.07813,-30.85937 3.64578,-8.59366 8.59369,-15.49469 14.84375,-20.70313 6.24993,-5.20822 13.54159,-8.98426 21.875,-11.32812 8.33324,-2.34363 17.3176,-3.5155 26.95312,-3.51563 9.11446,1.3e-4 17.70821,1.172 25.78125,3.51563 8.33319,2.34386 15.62485,6.1199 21.875,11.32812 6.24984,5.20844 11.19775,12.10947 14.84375,20.70313 3.64566,8.33341 5.46857,18.61986 5.46875,30.85937 -1.8e-4,11.7188 -1.82309,21.7448 -5.46875,30.0781 -3.646,8.3334 -8.59391,15.2344 -14.84375,20.7032 -6.25015,5.4687 -13.54181,9.3749 -21.875,11.7187 -8.07304,2.6042 -16.66679,3.9062 -25.78125,3.9063 -9.63552,-10e-5 -18.61988,-1.3021 -26.95312,-3.9063 -8.33341,-2.3438 -15.62507,-6.25 -21.875,-11.7187 -6.25006,-5.4688 -11.19797,-12.3698 -14.84375,-20.7032 -3.38546,-8.3333 -5.07817,-18.3593 -5.07813,-30.0781"
       style="font-weight:bold;font-size:800px;font-family:'Droid Sans';-inkscape-font-specification:'Droid Sans Bold'"
       id="path3192" />
  </g>
</svg>
