<?xml version="1.0" encoding="UTF-8" standalone="no"?>
<svg
   xmlns:dc="http://purl.org/dc/elements/1.1/"
   xmlns:cc="http://creativecommons.org/ns#"
   xmlns:rdf="http://www.w3.org/1999/02/22-rdf-syntax-ns#"
   xmlns:svg="http://www.w3.org/2000/svg"
   xmlns="http://www.w3.org/2000/svg"
   xmlns:sodipodi="http://sodipodi.sourceforge.net/DTD/sodipodi-0.dtd"
   xmlns:inkscape="http://www.inkscape.org/namespaces/inkscape"
   width="1792"
   height="1792"
   viewBox="0 0 1792 1792"
   id="svg3033"
   version="1.1"
   inkscape:version="0.91 r13725"
   sodipodi:docname="answer-add.svg">
  <metadata
     id="metadata3041">
    <rdf:RDF>
      <cc:Work
         rdf:about="">
        <dc:format>image/svg+xml</dc:format>
        <dc:type
           rdf:resource="http://purl.org/dc/dcmitype/StillImage" />
        <dc:title></dc:title>
      </cc:Work>
    </rdf:RDF>
  </metadata>
  <defs
     id="defs3039" />
  <sodipodi:namedview
     pagecolor="#ffffff"
     bordercolor="#666666"
     borderopacity="1"
     objecttolerance="10"
     gridtolerance="10"
     guidetolerance="10"
     inkscape:pageopacity="0"
     inkscape:pageshadow="2"
     inkscape:window-width="1920"
     inkscape:window-height="1137"
     id="namedview3037"
     showgrid="false"
     inkscape:zoom="0.35044643"
     inkscape:cx="823.23568"
     inkscape:cy="751.04716"
     inkscape:window-x="0"
     inkscape:window-y="27"
     inkscape:window-maximized="1"
     inkscape:current-layer="svg3033" />
  <path
     d="M 896 256 C 733.33333 256 583.33333 284.5 446 341.5 C 308.66667 398.5 200 476.16667 120 574.5 C 40 672.83333 0 780 0 896 C 0 996 30.166667 1089.6667 90.5 1177 C 150.83333 1264.3333 233.33333 1337.6667 338 1397 C 330.66667 1423.6667 322 1449 312 1473 C 302 1497 293 1516.6667 285 1532 C 277 1547.3333 266.16667 1564.3333 252.5 1583 C 238.83333 1601.6667 228.5 1614.8333 221.5 1622.5 C 214.5 1630.1667 203 1642.8333 187 1660.5 C 171 1678.1667 160.66667 1689.6667 156 1695 L 148 1704 L 141 1712.5 L 135 1721.5 C 131.66667 1726.5 130.16667 1729.6667 130.5 1731 C 130.83333 1732.3333 130.16667 1735.6667 128.5 1741 C 126.83333 1746.3333 127 1750.3333 129 1753 L 129 1754 C 131.66667 1765.3333 137 1774.5 145 1781.5 C 153 1788.5 162 1792 172 1792 L 177 1792 C 220.33333 1786.6667 258.33333 1779.3333 291 1770 C 465.66667 1725.3333 619 1644.6667 751 1528 C 801 1533.3333 849.33333 1536 896 1536 C 909.74932 1536 923.40042 1535.7783 936.96875 1535.3711 A 220.022 220.022 0 0 1 861.9668 1407.3926 C 831.38102 1406.3317 799.39702 1403.8721 766 1400 L 709 1394 L 666 1432 C 584 1504 492.33333 1561 391 1603 C 421.66667 1549 445 1491.6667 461 1431 L 488 1335 L 401 1285 C 314.33333 1235.6667 247.16667 1177.1667 199.5 1109.5 C 151.83333 1041.8333 128 970.66667 128 896 C 128 804.66667 162.83333 719.66667 232.5 641 C 302.16667 562.33333 396.16667 499.83333 514.5 453.5 C 632.83333 407.16667 760 384 896 384 C 1032 384 1159.1667 407.16667 1277.5 453.5 C 1395.8333 499.83333 1489.8333 562.33333 1559.5 641 C 1629.1667 719.66667 1664 804.66667 1664 896 C 1664 966.85366 1643.0224 1033.8924 1601.0957 1097.123 L 1601.0957 1146.8281 L 1681.0957 1146.8281 A 220.022 220.022 0 0 1 1719.9082 1149.7969 C 1767.9642 1070.5036 1792 985.90563 1792 896 C 1792 780 1752 672.83333 1672 574.5 C 1592 476.16667 1483.3333 398.5 1346 341.5 C 1208.6667 284.5 1058.6667 256 896 256 z "
     id="path3035" />
  <path
     inkscape:connector-curvature="0"
     style="color:#000000;font-style:normal;font-variant:normal;font-weight:normal;font-stretch:normal;font-size:medium;line-height:normal;font-family:sans-serif;text-indent:0;text-align:start;text-decoration:none;text-decoration-line:none;text-decoration-style:solid;text-decoration-color:#000000;letter-spacing:normal;word-spacing:normal;text-transform:none;direction:ltr;block-progression:tb;writing-mode:lr-tb;baseline-shift:baseline;text-anchor:start;white-space:normal;clip-rule:nonzero;display:inline;overflow:visible;visibility:visible;opacity:1;isolation:auto;mix-blend-mode:normal;color-interpolation:sRGB;color-interpolation-filters:linearRGB;solid-color:#000000;solid-opacity:1;fill:#000000;fill-opacity:1;fill-rule:evenodd;stroke:none;stroke-width:220;stroke-linecap:round;stroke-linejoin:miter;stroke-miterlimit:4;stroke-dasharray:none;stroke-dashoffset:0;stroke-opacity:1;color-rendering:auto;image-rendering:auto;shape-rendering:auto;text-rendering:auto;enable-background:accumulate"
     d="M 1376.5857,963.83408 A 110.011,110.011 0 0 0 1268.242,1075.3888 l 0,190 -190,0 a 110.011,110.011 0 1 0 0,220 l 190,0 0,190 a 110.011,110.011 0 1 0 220,0 l 0,-190 190,0 a 110.011,110.011 0 1 0 0,-220 l -190,0 0,-190 A 110.011,110.011 0 0 0 1376.5857,963.83408 Z"
     id="path5834-6" />
  <g
     transform="matrix(1.2600156,0,0,1.2600156,6.434972,-90.749534)"
     style="font-style:normal;font-variant:normal;font-weight:normal;font-stretch:normal;font-size:40px;line-height:125%;font-family:'Droid Sans Mono';-inkscape-font-specification:'Droid Sans Mono';letter-spacing:0px;word-spacing:0px;fill:#000000;fill-opacity:1;stroke:none"
     id="text3187">
    <path
       inkscape:connector-curvature="0"
       d="m 756.77118,859.22485 -95.3125,0 -19.92188,-381.64062 135.15625,0 -19.92187,381.64062 M 639.9743,992.8186 c -4e-5,-12.23951 1.69267,-22.52596 5.07813,-30.85937 3.64578,-8.59366 8.59369,-15.49469 14.84375,-20.70313 6.24993,-5.20822 13.54159,-8.98426 21.875,-11.32812 8.33324,-2.34363 17.3176,-3.5155 26.95312,-3.51563 9.11446,1.3e-4 17.70821,1.172 25.78125,3.51563 8.33319,2.34386 15.62485,6.1199 21.875,11.32812 6.24984,5.20844 11.19775,12.10947 14.84375,20.70313 3.64566,8.33341 5.46857,18.61986 5.46875,30.85937 -1.8e-4,11.7188 -1.82309,21.7448 -5.46875,30.0781 -3.646,8.3334 -8.59391,15.2344 -14.84375,20.7032 -6.25015,5.4687 -13.54181,9.3749 -21.875,11.7187 -8.07304,2.6042 -16.66679,3.9062 -25.78125,3.9063 -9.63552,-10e-5 -18.61988,-1.3021 -26.95312,-3.9063 -8.33341,-2.3438 -15.62507,-6.25 -21.875,-11.7187 -6.25006,-5.4688 -11.19797,-12.3698 -14.84375,-20.7032 -3.38546,-8.3333 -5.07817,-18.3593 -5.07813,-30.0781"
       style="font-weight:bold;font-size:800px;font-family:'Droid Sans';-inkscape-font-specification:'Droid Sans Bold'"
       id="path3192" />
  </g>
</svg>
