<?xml version="1.0" encoding="UTF-8" standalone="no"?>
<!-- Generator: Adobe Illustrator 16.2.1, SVG Export Plug-In . SVG Version: 6.00 Build 0)  -->

<svg
   xmlns:dc="http://purl.org/dc/elements/1.1/"
   xmlns:cc="http://creativecommons.org/ns#"
   xmlns:rdf="http://www.w3.org/1999/02/22-rdf-syntax-ns#"
   xmlns:svg="http://www.w3.org/2000/svg"
   xmlns="http://www.w3.org/2000/svg"
   xmlns:sodipodi="http://sodipodi.sourceforge.net/DTD/sodipodi-0.dtd"
   xmlns:inkscape="http://www.inkscape.org/namespaces/inkscape"
   version="1.1"
   id="Layer_1"
   x="0px"
   y="0px"
   width="512px"
   height="512px"
   viewBox="0 0 512 512"
   style="enable-background:new 0 0 512 512;"
   xml:space="preserve"
   inkscape:version="0.91 r13725"
   sodipodi:docname="compose.svg"><metadata
     id="metadata4429"><rdf:RDF><cc:Work
         rdf:about=""><dc:format>image/svg+xml</dc:format><dc:type
           rdf:resource="http://purl.org/dc/dcmitype/StillImage" /></cc:Work></rdf:RDF></metadata><defs
     id="defs4427" /><sodipodi:namedview
     pagecolor="#ffffff"
     bordercolor="#666666"
     borderopacity="1"
     objecttolerance="10"
     gridtolerance="10"
     guidetolerance="10"
     inkscape:pageopacity="0"
     inkscape:pageshadow="2"
     inkscape:window-width="1646"
     inkscape:window-height="930"
     id="namedview4425"
     showgrid="false"
     inkscape:zoom="0.4609375"
     inkscape:cx="61.830508"
     inkscape:cy="256"
     inkscape:window-x="0"
     inkscape:window-y="27"
     inkscape:window-maximized="0"
     inkscape:current-layer="Layer_1" /><g
     id="g4415"><path
       d="M442.8,99.6l-30.4-30.4c-7-6.9-18.2-6.9-25.1,0L355.5,101l55.5,55.5l31.8-31.7C449.7,117.7,449.7,106.5,442.8,99.6z"
       id="path4417" /><g
       id="g4419"><path
         style=""
         d="M 346.1,110.5 174.1,288 160,352 224,337.9 400.6,164.9 Z"
         id="polygon4421" /></g><path
       d="M384,256v150c0,5.1-3.9,10.1-9.2,10.1s-269-0.1-269-0.1c-5.6,0-9.8-5.4-9.8-10s0-268,0-268c0-5,4.7-10,10.6-10H256l32-32   H87.4c-13,0-23.4,10.3-23.4,23.3v305.3c0,12.9,10.5,23.4,23.4,23.4h305.3c12.9,0,23.3-10.5,23.3-23.4V224L384,256z"
       id="path4423" /></g></svg>