<?xml version="1.0" encoding="UTF-8" standalone="no"?>
<svg
   xmlns:dc="http://purl.org/dc/elements/1.1/"
   xmlns:cc="http://creativecommons.org/ns#"
   xmlns:rdf="http://www.w3.org/1999/02/22-rdf-syntax-ns#"
   xmlns:svg="http://www.w3.org/2000/svg"
   xmlns="http://www.w3.org/2000/svg"
   xmlns:sodipodi="http://sodipodi.sourceforge.net/DTD/sodipodi-0.dtd"
   xmlns:inkscape="http://www.inkscape.org/namespaces/inkscape"
   version="1.1"
   viewBox="0 -256 1792 1792"
   id="svg4495"
   sodipodi:docname="flag.svg"
   inkscape:version="0.92.1 r15371">
  <metadata
     id="metadata4501">
    <rdf:RDF>
      <cc:Work
         rdf:about="">
        <dc:format>image/svg+xml</dc:format>
        <dc:type
           rdf:resource="http://purl.org/dc/dcmitype/StillImage" />
        <dc:title></dc:title>
      </cc:Work>
    </rdf:RDF>
  </metadata>
  <defs
     id="defs4499" />
  <sodipodi:namedview
     pagecolor="#ffffff"
     bordercolor="#666666"
     borderopacity="1"
     objecttolerance="10"
     gridtolerance="10"
     guidetolerance="10"
     inkscape:pageopacity="0"
     inkscape:pageshadow="2"
     inkscape:window-width="1162"
     inkscape:window-height="989"
     id="namedview4497"
     showgrid="false"
     inkscape:zoom="0.13169643"
     inkscape:cx="896"
     inkscape:cy="896"
     inkscape:window-x="428"
     inkscape:window-y="68"
     inkscape:window-maximized="0"
     inkscape:current-layer="svg4495" />
  <g
     transform="matrix(1 0 0 -1 0 1536)"
     id="g4493">
    <path
       fill="currentColor"
       d="M320 1280q0 -72 -64 -110v-1266q0 -13 -9.5 -22.5t-22.5 -9.5h-64q-13 0 -22.5 9.5t-9.5 22.5v1266q-64 38 -64 110q0 53 37.5 90.5t90.5 37.5t90.5 -37.5t37.5 -90.5zM1792 1216v-763q0 -25 -12.5 -38.5t-39.5 -27.5q-215 -116 -369 -116q-61 0 -123.5 22t-108.5 48 t-115.5 48t-142.5 22q-192 0 -464 -146q-17 -9 -33 -9q-26 0 -45 19t-19 45v742q0 32 31 55q21 14 79 43q236 120 421 120q107 0 200 -29t219 -88q38 -19 88 -19q54 0 117.5 21t110 47t88 47t54.5 21q26 0 45 -19t19 -45z"
       id="path4491" />
  </g>
</svg>
