<?xml version="1.0" encoding="UTF-8" standalone="no"?>
<svg
   xmlns:dc="http://purl.org/dc/elements/1.1/"
   xmlns:cc="http://creativecommons.org/ns#"
   xmlns:rdf="http://www.w3.org/1999/02/22-rdf-syntax-ns#"
   xmlns:svg="http://www.w3.org/2000/svg"
   xmlns="http://www.w3.org/2000/svg"
   xmlns:sodipodi="http://sodipodi.sourceforge.net/DTD/sodipodi-0.dtd"
   xmlns:inkscape="http://www.inkscape.org/namespaces/inkscape"
   version="1.1"
   viewBox="0 -256 1792 1792"
   id="svg4495"
   sodipodi:docname="flag-add.svg"
   inkscape:version="0.92.1 r15371">
  <metadata
     id="metadata4501">
    <rdf:RDF>
      <cc:Work
         rdf:about="">
        <dc:format>image/svg+xml</dc:format>
        <dc:type
           rdf:resource="http://purl.org/dc/dcmitype/StillImage" />
        <dc:title></dc:title>
      </cc:Work>
    </rdf:RDF>
  </metadata>
  <defs
     id="defs4499" />
  <sodipodi:namedview
     pagecolor="#ffffff"
     bordercolor="#666666"
     borderopacity="1"
     objecttolerance="10"
     gridtolerance="10"
     guidetolerance="10"
     inkscape:pageopacity="0"
     inkscape:pageshadow="2"
     inkscape:window-width="1434"
     inkscape:window-height="1020"
     id="namedview4497"
     showgrid="true"
     inkscape:zoom="0.52678571"
     inkscape:cx="821.26649"
     inkscape:cy="648.05876"
     inkscape:window-x="156"
     inkscape:window-y="68"
     inkscape:window-maximized="0"
     inkscape:current-layer="svg4495">
    <inkscape:grid
       type="xygrid"
       id="grid5107" />
  </sodipodi:namedview>
  <path
     style="fill:currentColor"
     d="M 192 384 C 156.66667 384 126.5 396.5 101.5 421.5 C 76.5 446.5 64 476.66667 64 512 C 64 560 85.333333 596.66667 128 622 L 128 1888 C 128 1896.6667 131.16667 1904.1667 137.5 1910.5 C 143.83333 1916.8333 151.33333 1920 160 1920 L 224 1920 C 232.66667 1920 240.16667 1916.8333 246.5 1910.5 C 252.83333 1904.1667 256 1896.6667 256 1888 L 256 622 C 298.66667 596.66667 320 560 320 512 C 320 476.66667 307.5 446.5 282.5 421.5 C 257.5 396.5 227.33333 384 192 384 z M 851 512 C 727.66667 512 587.33333 552 430 632 C 391.33333 651.33333 365 665.66667 351 675 C 330.33333 690.33333 320 708.66667 320 730 L 320 1472 C 320 1489.3333 326.33333 1504.3333 339 1517 C 351.66667 1529.6667 366.66667 1536 384 1536 C 394.66667 1536 405.66667 1533 417 1527 C 501.4584 1481.6657 580.12906 1446.895 653.01758 1422.6758 A 234.69014 234.69014 0 0 1 882.10156 1124.9609 L 967.43555 1124.9609 L 967.43555 1039.627 A 234.69014 234.69014 0 0 1 1198.5664 801.64453 A 234.69014 234.69014 0 0 1 1436.7676 1039.627 L 1436.7676 1124.9609 L 1522.1016 1124.9609 A 234.69014 234.69014 0 0 1 1757.1328 1395.248 C 1766.623 1389.262 1774.0876 1383.3454 1779.5 1377.5 C 1787.8333 1368.5 1792 1355.6667 1792 1339 L 1792 576 C 1792 558.66667 1785.6667 543.66667 1773 531 C 1760.3333 518.33333 1745.3333 512 1728 512 C 1719.3333 512 1701.1667 519 1673.5 533 C 1645.8333 547 1616.5 562.66667 1585.5 580 C 1554.5 597.33333 1517.8333 613 1475.5 627 C 1433.1667 641 1394 648 1358 648 C 1324.6667 648 1295.3333 641.66667 1270 629 C 1186 589.66667 1113 560.33333 1051 541 C 989 521.66667 922.33333 512 851 512 z "
     transform="translate(0,-256)"
     id="path4491" />
  <path
     style="color:#000000;font-style:normal;font-variant:normal;font-weight:normal;font-stretch:normal;font-size:medium;line-height:normal;font-family:sans-serif;text-indent:0;text-align:start;text-decoration:none;text-decoration-line:none;text-decoration-style:solid;text-decoration-color:#000000;letter-spacing:normal;word-spacing:normal;text-transform:none;writing-mode:lr-tb;direction:ltr;baseline-shift:baseline;text-anchor:start;white-space:normal;clip-rule:nonzero;display:inline;overflow:visible;visibility:visible;opacity:1;isolation:auto;mix-blend-mode:normal;color-interpolation:sRGB;color-interpolation-filters:linearRGB;solid-color:#000000;solid-opacity:1;fill:#000000;fill-opacity:1;fill-rule:evenodd;stroke:none;stroke-width:234.66667175;stroke-linecap:round;stroke-linejoin:miter;stroke-miterlimit:4;stroke-dasharray:none;stroke-dashoffset:0;stroke-opacity:1;color-rendering:auto;image-rendering:auto;shape-rendering:auto;text-rendering:auto;enable-background:accumulate"
     d="M 1202.9574,654.57687 A 117.34507,117.34507 0 0 0 1087.3908,773.56856 V 976.23524 H 884.72411 a 117.34507,117.34507 0 1 0 0,234.66666 h 202.66669 v 202.6667 a 117.34507,117.34507 0 1 0 234.6666,0 v -202.6667 h 202.6667 a 117.34507,117.34507 0 1 0 0,-234.66666 H 1322.0574 V 773.56856 a 117.34507,117.34507 0 0 0 -119.1,-118.99169 z"
     id="path5834-6"
     inkscape:connector-curvature="0" />
</svg>
