<?xml version="1.0" encoding="UTF-8" standalone="no"?>
<svg
   xmlns:dc="http://purl.org/dc/elements/1.1/"
   xmlns:cc="http://creativecommons.org/ns#"
   xmlns:rdf="http://www.w3.org/1999/02/22-rdf-syntax-ns#"
   xmlns:svg="http://www.w3.org/2000/svg"
   xmlns="http://www.w3.org/2000/svg"
   xmlns:sodipodi="http://sodipodi.sourceforge.net/DTD/sodipodi-0.dtd"
   xmlns:inkscape="http://www.inkscape.org/namespaces/inkscape"
   width="1792"
   height="1792"
   viewBox="0 0 1792 1792"
   id="svg3033"
   version="1.1"
   inkscape:version="0.48.5 r10040"
   sodipodi:docname="question.svg">
  <metadata
     id="metadata3041">
    <rdf:RDF>
      <cc:Work
         rdf:about="">
        <dc:format>image/svg+xml</dc:format>
        <dc:type
           rdf:resource="http://purl.org/dc/dcmitype/StillImage" />
        <dc:title></dc:title>
      </cc:Work>
    </rdf:RDF>
  </metadata>
  <defs
     id="defs3039" />
  <sodipodi:namedview
     pagecolor="#ffffff"
     bordercolor="#666666"
     borderopacity="1"
     objecttolerance="10"
     gridtolerance="10"
     guidetolerance="10"
     inkscape:pageopacity="0"
     inkscape:pageshadow="2"
     inkscape:window-width="1403"
     inkscape:window-height="861"
     id="namedview3037"
     showgrid="false"
     inkscape:zoom="0.35044643"
     inkscape:cx="896"
     inkscape:cy="933.84627"
     inkscape:window-x="85"
     inkscape:window-y="43"
     inkscape:window-maximized="0"
     inkscape:current-layer="svg3033" />
  <path
     d="M896 384q-204 0-381.5 69.5t-282 187.5-104.5 255q0 112 71.5 213.5t201.5 175.5l87 50-27 96q-24 91-70 172 152-63 275-171l43-38 57 6q69 8 130 8 204 0 381.5-69.5t282-187.5 104.5-255-104.5-255-282-187.5-381.5-69.5zm896 512q0 174-120 321.5t-326 233-450 85.5q-70 0-145-8-198 175-460 242-49 14-114 22h-5q-15 0-27-10.5t-16-27.5v-1q-3-4-.5-12t2-10 4.5-9.5l6-9 7-8.5 8-9q7-8 31-34.5t34.5-38 31-39.5 32.5-51 27-59 26-76q-157-89-247.5-220t-90.5-281q0-174 120-321.5t326-233 450-85.5 450 85.5 326 233 120 321.5z"
     id="path3035" />
  <g
     style="font-size:40px;font-style:normal;font-variant:normal;font-weight:normal;font-stretch:normal;line-height:125%;letter-spacing:0px;word-spacing:0px;fill-opacity:1;stroke:none;font-family:Droid Sans Mono;-inkscape-font-specification:Droid Sans Mono"
     id="text3112">
    <path
       d="m 823.1355,995.89697 0,-36.13281 c -1.3e-4,-16.60127 1.62747,-31.57522 4.88281,-44.92187 3.58059,-13.67155 8.78892,-26.52961 15.625,-38.57422 7.1613,-12.36943 16.27588,-24.25092 27.34375,-35.64453 11.06752,-11.71835 24.41386,-23.76261 40.03906,-36.13282 13.67165,-10.74175 25.22763,-20.3446 34.66797,-28.80859 9.43985,-8.46308 17.08958,-16.76385 22.94922,-24.90234 5.8591,-8.46306 10.09086,-17.25211 12.69531,-26.36719 2.60388,-9.11407 3.90596,-19.69348 3.90625,-31.73828 -2.9e-4,-18.55413 -6.34794,-33.8536 -19.04297,-45.89844 -12.37005,-12.04367 -31.413,-18.0658 -57.1289,-18.06641 -22.46113,6.1e-4 -46.71241,4.72065 -72.75391,14.16016 -25.71626,9.44068 -52.40894,20.99666 -80.07812,34.66797 L 706.43628,569.62744 c 13.99737,-8.13735 29.13407,-15.78708 45.41016,-22.94922 16.60148,-7.48628 33.69131,-13.99669 51.26953,-19.53125 17.90352,-5.85866 35.9699,-10.41595 54.19922,-13.67187 18.22898,-3.25449 36.13261,-4.88209 53.71093,-4.88281 33.20288,7.2e-4 63.15076,4.06973 89.84378,12.20703 26.6923,7.8132 49.316,19.36918 67.8711,34.66797 18.5543,15.30014 32.7144,33.85481 42.4804,55.66406 10.0908,21.81049 15.1363,46.71281 15.1368,74.70703 -5e-4,20.50834 -2.2791,38.90025 -6.836,55.17578 -4.5577,15.951 -11.3936,30.92494 -20.5078,44.92188 -8.7895,13.6723 -20.0199,27.01864 -33.6914,40.03906 -13.3467,12.6957 -28.9717,26.20481 -46.875,40.52734 -13.6722,10.74254 -24.90265,20.18264 -33.69141,28.32031 -8.46382,7.81283 -15.13699,15.29981 -20.01953,22.46094 -4.88308,7.16177 -8.30104,14.64874 -10.25391,22.46094 -1.62786,7.48726 -2.44166,16.43908 -2.4414,26.85547 l 0,29.29687 -128.90625,0 m -16.11328,166.99223 c -1.2e-4,-15.2994 2.11577,-28.1575 6.34765,-38.5743 4.55717,-10.742 10.74206,-19.3683 18.55469,-25.8789 7.81236,-6.5102 16.92693,-11.2303 27.34375,-14.1601 10.74201,-2.9296 22.13523,-4.3944 34.17969,-4.3946 11.39302,2e-4 22.13519,1.465 32.22656,4.3946 10.41643,2.9298 19.531,7.6499 27.34375,14.1601 7.81223,6.5106 13.99712,15.1369 18.55469,25.8789 4.55701,10.4168 6.83565,23.2749 6.83594,38.5743 -2.9e-4,14.6485 -2.27893,27.181 -6.83594,37.5976 -4.55757,10.4167 -10.74246,19.043 -18.55469,25.8789 -7.81275,6.836 -16.92732,11.7188 -27.34375,14.6485 -10.09137,3.2552 -20.83354,4.8828 -32.22656,4.8828 -12.04446,0 -23.43768,-1.6276 -34.17969,-4.8828 -10.41682,-2.9297 -19.53139,-7.8125 -27.34375,-14.6485 -7.81263,-6.8359 -13.99752,-15.4622 -18.55469,-25.8789 -4.23188,-10.4166 -6.34777,-22.9491 -6.34765,-37.5976"
       style="font-size:1000px;font-weight:bold;font-family:Droid Sans;-inkscape-font-specification:Droid Sans Bold"
       id="path3117" />
  </g>
</svg>
