<?xml version="1.0" encoding="UTF-8" standalone="no"?>
<svg
   xmlns:dc="http://purl.org/dc/elements/1.1/"
   xmlns:cc="http://creativecommons.org/ns#"
   xmlns:rdf="http://www.w3.org/1999/02/22-rdf-syntax-ns#"
   xmlns:svg="http://www.w3.org/2000/svg"
   xmlns="http://www.w3.org/2000/svg"
   xmlns:sodipodi="http://sodipodi.sourceforge.net/DTD/sodipodi-0.dtd"
   xmlns:inkscape="http://www.inkscape.org/namespaces/inkscape"
   width="1792"
   height="1792"
   viewBox="0 0 1792 1792"
   id="svg3033"
   version="1.1"
   inkscape:version="0.91 r13725"
   sodipodi:docname="question-add.svg">
  <metadata
     id="metadata3041">
    <rdf:RDF>
      <cc:Work
         rdf:about="">
        <dc:format>image/svg+xml</dc:format>
        <dc:type
           rdf:resource="http://purl.org/dc/dcmitype/StillImage" />
        <dc:title />
      </cc:Work>
    </rdf:RDF>
  </metadata>
  <defs
     id="defs3039" />
  <sodipodi:namedview
     pagecolor="#ffffff"
     bordercolor="#666666"
     borderopacity="1"
     objecttolerance="10"
     gridtolerance="10"
     guidetolerance="10"
     inkscape:pageopacity="0"
     inkscape:pageshadow="2"
     inkscape:window-width="1920"
     inkscape:window-height="1137"
     id="namedview3037"
     showgrid="false"
     inkscape:zoom="0.35044643"
     inkscape:cx="823.23568"
     inkscape:cy="751.04716"
     inkscape:window-x="0"
     inkscape:window-y="27"
     inkscape:window-maximized="1"
     inkscape:current-layer="svg3033" />
  <path
     d="M 896 256 C 733.33333 256 583.33333 284.5 446 341.5 C 308.66667 398.5 200 476.16667 120 574.5 C 40 672.83333 0 780 0 896 C 0 996 30.166667 1089.6667 90.5 1177 C 150.83333 1264.3333 233.33333 1337.6667 338 1397 C 330.66667 1423.6667 322 1449 312 1473 C 302 1497 293 1516.6667 285 1532 C 277 1547.3333 266.16667 1564.3333 252.5 1583 C 238.83333 1601.6667 228.5 1614.8333 221.5 1622.5 C 214.5 1630.1667 203 1642.8333 187 1660.5 C 171 1678.1667 160.66667 1689.6667 156 1695 L 148 1704 L 141 1712.5 L 135 1721.5 C 131.66667 1726.5 130.16667 1729.6667 130.5 1731 C 130.83333 1732.3333 130.16667 1735.6667 128.5 1741 C 126.83333 1746.3333 127 1750.3333 129 1753 L 129 1754 C 131.66667 1765.3333 137 1774.5 145 1781.5 C 153 1788.5 162 1792 172 1792 L 177 1792 C 220.33333 1786.6667 258.33333 1779.3333 291 1770 C 465.66667 1725.3333 619 1644.6667 751 1528 C 801 1533.3333 849.33333 1536 896 1536 C 909.74932 1536 923.40042 1535.7783 936.96875 1535.3711 A 220.022 220.022 0 0 1 861.9668 1407.3926 C 831.38102 1406.3317 799.39702 1403.8721 766 1400 L 709 1394 L 666 1432 C 584 1504 492.33333 1561 391 1603 C 421.66667 1549 445 1491.6667 461 1431 L 488 1335 L 401 1285 C 314.33333 1235.6667 247.16667 1177.1667 199.5 1109.5 C 151.83333 1041.8333 128 970.66667 128 896 C 128 804.66667 162.83333 719.66667 232.5 641 C 302.16667 562.33333 396.16667 499.83333 514.5 453.5 C 632.83333 407.16667 760 384 896 384 C 1032 384 1159.1667 407.16667 1277.5 453.5 C 1395.8333 499.83333 1489.8333 562.33333 1559.5 641 C 1629.1667 719.66667 1664 804.66667 1664 896 C 1664 966.85366 1643.0224 1033.8924 1601.0957 1097.123 L 1601.0957 1146.8281 L 1681.0957 1146.8281 A 220.022 220.022 0 0 1 1719.9082 1149.7969 C 1767.9642 1070.5036 1792 985.90563 1792 896 C 1792 780 1752 672.83333 1672 574.5 C 1592 476.16667 1483.3333 398.5 1346 341.5 C 1208.6667 284.5 1058.6667 256 896 256 z "
     id="path3035" />
  <g
     style="font-size:40px;font-style:normal;font-variant:normal;font-weight:normal;font-stretch:normal;line-height:125%;letter-spacing:0px;word-spacing:0px;fill-opacity:1;stroke:none;font-family:Droid Sans Mono;-inkscape-font-specification:Droid Sans Mono"
     id="text3112">
    <path
       d="m 823.1355,995.89697 0,-36.13281 c -1.3e-4,-16.60127 1.62747,-31.57522 4.88281,-44.92187 3.58059,-13.67155 8.78892,-26.52961 15.625,-38.57422 7.1613,-12.36943 16.27588,-24.25092 27.34375,-35.64453 11.06752,-11.71835 24.41386,-23.76261 40.03906,-36.13282 13.67165,-10.74175 25.22763,-20.3446 34.66797,-28.80859 9.43985,-8.46308 17.08958,-16.76385 22.94922,-24.90234 5.8591,-8.46306 10.09086,-17.25211 12.69531,-26.36719 2.60388,-9.11407 3.90596,-19.69348 3.90625,-31.73828 -2.9e-4,-18.55413 -6.34794,-33.8536 -19.04297,-45.89844 -12.37005,-12.04367 -31.413,-18.0658 -57.1289,-18.06641 -22.46113,6.1e-4 -46.71241,4.72065 -72.75391,14.16016 -25.71626,9.44068 -52.40894,20.99666 -80.07812,34.66797 L 706.43628,569.62744 c 13.99737,-8.13735 29.13407,-15.78708 45.41016,-22.94922 16.60148,-7.48628 33.69131,-13.99669 51.26953,-19.53125 17.90352,-5.85866 35.9699,-10.41595 54.19922,-13.67187 18.22898,-3.25449 36.13261,-4.88209 53.71093,-4.88281 33.20288,7.2e-4 63.15076,4.06973 89.84378,12.20703 26.6923,7.8132 49.316,19.36918 67.8711,34.66797 18.5543,15.30014 32.7144,33.85481 42.4804,55.66406 10.0908,21.81049 15.1363,46.71281 15.1368,74.70703 -5e-4,20.50834 -2.2791,38.90025 -6.836,55.17578 -4.5577,15.951 -11.3936,30.92494 -20.5078,44.92188 -8.7895,13.6723 -20.0199,27.01864 -33.6914,40.03906 -13.3467,12.6957 -28.9717,26.20481 -46.875,40.52734 -13.6722,10.74254 -24.90265,20.18264 -33.69141,28.32031 -8.46382,7.81283 -15.13699,15.29981 -20.01953,22.46094 -4.88308,7.16177 -8.30104,14.64874 -10.25391,22.46094 -1.62786,7.48726 -2.44166,16.43908 -2.4414,26.85547 l 0,29.29687 -128.90625,0 m -16.11328,166.99223 c -1.2e-4,-15.2994 2.11577,-28.1575 6.34765,-38.5743 4.55717,-10.742 10.74206,-19.3683 18.55469,-25.8789 7.81236,-6.5102 16.92693,-11.2303 27.34375,-14.1601 10.74201,-2.9296 22.13523,-4.3944 34.17969,-4.3946 11.39302,2e-4 22.13519,1.465 32.22656,4.3946 10.41643,2.9298 19.531,7.6499 27.34375,14.1601 7.81223,6.5106 13.99712,15.1369 18.55469,25.8789 4.55701,10.4168 6.83565,23.2749 6.83594,38.5743 -2.9e-4,14.6485 -2.27893,27.181 -6.83594,37.5976 -4.55757,10.4167 -10.74246,19.043 -18.55469,25.8789 -7.81275,6.836 -16.92732,11.7188 -27.34375,14.6485 -10.09137,3.2552 -20.83354,4.8828 -32.22656,4.8828 -12.04446,0 -23.43768,-1.6276 -34.17969,-4.8828 -10.41682,-2.9297 -19.53139,-7.8125 -27.34375,-14.6485 -7.81263,-6.8359 -13.99752,-15.4622 -18.55469,-25.8789 -4.23188,-10.4166 -6.34777,-22.9491 -6.34765,-37.5976"
       style="font-size:1000px;font-weight:bold;font-family:Droid Sans;-inkscape-font-specification:Droid Sans Bold"
       id="path3117" />
  </g>
  <path
     inkscape:connector-curvature="0"
     style="font-style:normal;font-variant:normal;font-weight:normal;font-stretch:normal;font-size:medium;line-height:normal;font-family:sans-serif;text-indent:0;text-align:start;text-decoration:none;text-decoration-line:none;text-decoration-style:solid;text-decoration-color:#000000;letter-spacing:normal;word-spacing:normal;text-transform:none;direction:ltr;block-progression:tb;writing-mode:lr-tb;baseline-shift:baseline;text-anchor:start;white-space:normal;clip-rule:nonzero;display:inline;overflow:visible;visibility:visible;opacity:1;isolation:auto;mix-blend-mode:normal;color-interpolation:sRGB;color-interpolation-filters:linearRGB;solid-color:#000000;solid-opacity:1;fill-opacity:1;fill-rule:evenodd;stroke:none;stroke-width:220;stroke-linecap:round;stroke-linejoin:miter;stroke-miterlimit:4;stroke-dasharray:none;stroke-dashoffset:0;stroke-opacity:1;color-rendering:auto;image-rendering:auto;shape-rendering:auto;text-rendering:auto;enable-background:accumulate"
     d="M 1376.5857,963.83408 A 110.011,110.011 0 0 0 1268.242,1075.3888 l 0,190 -190,0 a 110.011,110.011 0 1 0 0,220 l 190,0 0,190 a 110.011,110.011 0 1 0 220,0 l 0,-190 190,0 a 110.011,110.011 0 1 0 0,-220 l -190,0 0,-190 A 110.011,110.011 0 0 0 1376.5857,963.83408 Z"
     id="path5834-6" />
</svg>
