<?xml version="1.0" encoding="UTF-8" standalone="no"?>
<svg
   xmlns:dc="http://purl.org/dc/elements/1.1/"
   xmlns:cc="http://creativecommons.org/ns#"
   xmlns:rdf="http://www.w3.org/1999/02/22-rdf-syntax-ns#"
   xmlns:svg="http://www.w3.org/2000/svg"
   xmlns="http://www.w3.org/2000/svg"
   xmlns:sodipodi="http://sodipodi.sourceforge.net/DTD/sodipodi-0.dtd"
   xmlns:inkscape="http://www.inkscape.org/namespaces/inkscape"
   width="1792"
   height="1792"
   viewBox="0 0 1792 1792"
   id="svg2"
   version="1.1"
   inkscape:version="0.48.5 r10040"
   sodipodi:docname="rating-neutral.svg">
  <metadata
     id="metadata10">
    <rdf:RDF>
      <cc:Work
         rdf:about="">
        <dc:format>image/svg+xml</dc:format>
        <dc:type
           rdf:resource="http://purl.org/dc/dcmitype/StillImage" />
      </cc:Work>
    </rdf:RDF>
  </metadata>
  <defs
     id="defs8" />
  <sodipodi:namedview
     pagecolor="#ffffff"
     bordercolor="#666666"
     borderopacity="1"
     objecttolerance="10"
     gridtolerance="10"
     guidetolerance="10"
     inkscape:pageopacity="0"
     inkscape:pageshadow="2"
     inkscape:window-width="913"
     inkscape:window-height="732"
     id="namedview6"
     showgrid="false"
     inkscape:zoom="0.13169643"
     inkscape:cx="896"
     inkscape:cy="896"
     inkscape:window-x="0"
     inkscape:window-y="27"
     inkscape:window-maximized="0"
     inkscape:current-layer="svg2" />
  <path
     d="m 1408,1344 q -26,0 -45,19 -19,19 -19,45 0,26 19,45 19,19 45,19 26,0 45,-19 19,-19 19,-45 0,-26 -19,-45 -19,-19 -45,-19 z M 832,192 q -51,0 -89.5,39 -38.5,39 -38.5,89 l 0,352 Q 646,672 544.5,624 443,576 384,576 q -98,0 -145,32 -47,32 -47,128 26,26 85,38 59,12 125.5,30.5 Q 469,823 512,864 q 23,22 91,77 5,4 30,23 25,19 41,31.5 16,12.5 42.5,34.5 26.5,22 44,40 17.5,18 35.5,38.5 18,20.5 27,40 9,19.5 9,35.5 l 0,32 640,0 0,-32 q 0,-13 3,-31.5 3,-18.5 6.5,-33 3.5,-14.5 11,-38 7.5,-23.5 11.5,-35 4,-11.5 12.5,-35.5 8.5,-24 10.5,-29 73,-211 73,-342 l 0,-121 q 0,-192 -167,-192 -26,0 -56,5 -16,-30 -52.5,-47.5 Q 1288,267 1251,267 q -37,0 -69,18 -50,-53 -119,-53 -25,0 -55.5,10 Q 977,252 960,267 959,235 913,213.5 867,192 832,192 z M 831,64 q 89,0 163,49 33,-9 69,-9 77,0 144,38 21,-3 43,-3 101,0 178,60 139,-1 219.5,85 80.5,86 80.5,227 l 0,129 q 0,96 -22.5,189.5 -22.5,93.5 -65.5,216.5 -40,116 -40,138 l 0,288 q 0,53 -37.5,90.5 -37.5,37.5 -90.5,37.5 l -640,0 q -53,0 -90.5,-37.5 Q 704,1525 704,1472 l 0,-274 Q 680,1162 549,1061 474,1003 421,954 396,930 335.5,918.5 275,907 209,888 143,869 101,826 64,787 64,736 64,652 96.5,585 129,518 198,483 q 69,-35 186,-35 93,0 192,48 l 0,-176 q 0,-104 76,-180 76,-76 179,-76 z"
     id="path4"
     inkscape:connector-curvature="0" />
</svg>
