<?xml version="1.0" encoding="UTF-8" standalone="no"?>
<!-- Generator: Adobe Illustrator 16.2.1, SVG Export Plug-In . SVG Version: 6.00 Build 0)  -->

<svg
   xmlns:dc="http://purl.org/dc/elements/1.1/"
   xmlns:cc="http://creativecommons.org/ns#"
   xmlns:rdf="http://www.w3.org/1999/02/22-rdf-syntax-ns#"
   xmlns:svg="http://www.w3.org/2000/svg"
   xmlns="http://www.w3.org/2000/svg"
   xmlns:sodipodi="http://sodipodi.sourceforge.net/DTD/sodipodi-0.dtd"
   xmlns:inkscape="http://www.inkscape.org/namespaces/inkscape"
   version="1.1"
   id="Layer_1"
   x="0px"
   y="0px"
   width="512px"
   height="512px"
   viewBox="0 0 512 512"
   enable-background="new 0 0 512 512"
   xml:space="preserve"
   inkscape:version="0.91 r13725"
   sodipodi:docname="task-add.svg"><metadata
     id="metadata3402"><rdf:RDF><cc:Work
         rdf:about=""><dc:format>image/svg+xml</dc:format><dc:type
           rdf:resource="http://purl.org/dc/dcmitype/StillImage" /><dc:title></dc:title></cc:Work></rdf:RDF></metadata><defs
     id="defs3400" /><sodipodi:namedview
     pagecolor="#ffffff"
     bordercolor="#666666"
     borderopacity="1"
     objecttolerance="10"
     gridtolerance="10"
     guidetolerance="10"
     inkscape:pageopacity="0"
     inkscape:pageshadow="2"
     inkscape:window-width="1920"
     inkscape:window-height="1137"
     id="namedview3398"
     showgrid="false"
     inkscape:zoom="1.2429611"
     inkscape:cx="193.79988"
     inkscape:cy="293.80301"
     inkscape:window-x="0"
     inkscape:window-y="27"
     inkscape:window-maximized="1"
     inkscape:current-layer="Layer_1" /><g
     id="g3384"><path
       d="M 256.49023 32 C 231.02423 32 210.5 52.690562 210.5 78.226562 L 210.5 98.822266 C 210.5 111.95027 201.90734 115.99006 189.90234 119.41406 C 189.45534 119.53106 189.10272 120.02553 188.63672 120.14453 C 170.44572 125.05053 162.927 140.5 161 160.5 L 353 160.5 C 351.312 140.5 343.27013 125.05053 325.07812 120.14453 C 324.63212 120.02553 323.95872 119.72052 323.51172 119.60352 C 311.50772 116.17952 302.5 111.95027 302.5 98.822266 L 302.5 78.226562 C 302.5 52.690562 281.97623 32 256.49023 32 z M 108.36719 63.5 C 93.249186 63.5 80.5 76.057219 80.5 91.574219 L 80.5 451.95508 C 80.5 467.45708 93.250142 480.5 108.36914 480.5 L 256.99023 480.5 L 316.44727 480.5 A 71.476095 71.476095 0 0 1 316.22461 474.29688 L 316.22461 448.30664 L 290.23633 448.30664 A 71.476095 71.476095 0 0 1 281.68164 447.82617 L 124.8125 447.84375 C 118.6015 447.37275 113.66284 442.1478 113.33984 435.7168 L 113.25586 108.70312 C 113.57786 101.94214 119.11372 96.5 125.76172 96.5 L 162.99219 96.5 C 173.30519 96.5 181.49805 88.071281 181.49805 77.488281 L 181.49805 63.5 L 108.36719 63.5 z M 331.5 63.5 L 331.5 77.488281 C 331.5 88.071281 340.69381 96.5 351.00781 96.5 L 388.21875 96.5 C 394.88575 96.5 400.3172 101.93531 400.6582 108.69531 L 400.68359 208.0918 A 71.476095 71.476095 0 0 1 432.5 222.71289 L 432.5 91.574219 C 432.5 76.057219 420.74933 63.5 405.61133 63.5 L 331.5 63.5 z M 256.99023 64.394531 C 264.60523 64.394531 270.78125 70.589563 270.78125 78.226562 C 270.78125 85.880562 264.60523 92.076172 256.99023 92.076172 C 249.37623 92.076172 243.21875 85.881564 243.21875 78.226562 C 243.21875 70.589562 249.37623 64.394531 256.99023 64.394531 z M 144.5 192.5 L 144.5 224.5 L 256.5 224.5 L 256.5 192.5 L 144.5 192.5 z M 144.5 256.5 L 144.5 288.5 L 316.22461 288.5 L 316.22461 279.38086 A 71.476095 71.476095 0 0 1 319.73828 256.5 L 144.5 256.5 z M 144.5 320.5 L 144.5 352.5 L 222.10742 352.5 A 71.476095 71.476095 0 0 1 245.3457 320.5 L 144.5 320.5 z M 144.5 384.5 L 144.5 416.5 L 229.8457 416.5 A 71.476095 71.476095 0 0 1 218.18555 384.5 L 144.5 384.5 z "
       id="path3386" /></g><path
     inkscape:connector-curvature="0"
     style="color:#000000;font-style:normal;font-variant:normal;font-weight:normal;font-stretch:normal;font-size:medium;line-height:normal;font-family:sans-serif;text-indent:0;text-align:start;text-decoration:none;text-decoration-line:none;text-decoration-style:solid;text-decoration-color:#000000;letter-spacing:normal;word-spacing:normal;text-transform:none;direction:ltr;block-progression:tb;writing-mode:lr-tb;baseline-shift:baseline;text-anchor:start;white-space:normal;clip-rule:nonzero;display:inline;overflow:visible;visibility:visible;opacity:1;isolation:auto;mix-blend-mode:normal;color-interpolation:sRGB;color-interpolation-filters:linearRGB;solid-color:#000000;solid-opacity:1;fill:#000000;fill-opacity:1;fill-rule:evenodd;stroke:none;stroke-width:220;stroke-linecap:round;stroke-linejoin:miter;stroke-miterlimit:4;stroke-dasharray:none;stroke-dashoffset:0;stroke-opacity:1;color-rendering:auto;image-rendering:auto;shape-rendering:auto;text-rendering:auto;enable-background:accumulate"
     d="m 387.28306,249.27496 a 33.238394,33.238394 0 0 0 -32.73463,33.7048 l 0,57.40604 -57.40603,0 a 33.238394,33.238394 0 1 0 0,66.47014 l 57.40603,0 0,57.40603 a 33.238394,33.238394 0 1 0 66.47014,0 l 0,-57.40603 57.40603,0 a 33.238394,33.238394 0 1 0 0,-66.47014 l -57.40603,0 0,-57.40604 a 33.238394,33.238394 0 0 0 -33.73551,-33.7048 z"
     id="path5834-6" /></svg>